<svg xmlns="http://www.w3.org/2000/svg" xmlns:xlink="http://www.w3.org/1999/xlink" xmlns:lucid="lucid" viewBox="0 0 1183 1005"><g transform="translate(-77.07499999999999 -135)" lucid:page-tab-id="0_0"><path d="M0 0h1360v1760H0z" fill="#fff"/><path d="M1000 920h240v200h-240z" stroke="#000" stroke-width="2" fill="#d1bcd2"/><path d="M441 611h490v209H441z" stroke="#000" stroke-width="2" fill="#5abaa7"/><use xlink:href="#a" transform="matrix(1,0,0,1,446,616) translate(223.525 103.10000000000001)"/><path d="M120 280h152v580H120z" fill="none"/><path d="M272 860c-20.02 0-36.25-16.23-36.25-36.25v-217.5c0-20.02-16.23-36.25-36.25-36.25 20.02 0 36.25-16.23 36.25-36.25v-217.5c0-20.02 16.23-36.25 36.25-36.25" stroke="#000" stroke-width="2" fill="none"/><use xlink:href="#b" transform="matrix(1,0,0,1,120,280) translate(3.700000000000003 272)"/><use xlink:href="#c" transform="matrix(1,0,0,1,120,280) translate(-21.925000000000004 293.6)"/><use xlink:href="#d" transform="matrix(1,0,0,1,120,280) translate(1.5749999999999993 315.2)"/><path d="M260 592h140v240H260z" stroke="#000" stroke-width="2" fill="#c7e8ac"/><use xlink:href="#e" transform="matrix(1,0,0,1,260,592) translate(36.05 112.80000000000001)"/><use xlink:href="#f" transform="matrix(1,0,0,1,260,592) translate(40.074999999999996 134.4)"/><path d="M260 300h140v240H260z" stroke="#000" stroke-width="2" fill="#c7e8ac"/><use xlink:href="#g" transform="matrix(1,0,0,1,260,300) translate(8.524999999999999 91.19999999999999)"/><use xlink:href="#h" transform="matrix(1,0,0,1,260,300) translate(63.475 91.19999999999999)"/><use xlink:href="#i" transform="matrix(1,0,0,1,260,300) translate(1.125 112.79999999999998)"/><use xlink:href="#j" transform="matrix(1,0,0,1,260,300) translate(26.025 112.79999999999998)"/><use xlink:href="#k" transform="matrix(1,0,0,1,260,300) translate(56.025 112.79999999999998)"/><use xlink:href="#l" transform="matrix(1,0,0,1,260,300) translate(90.925 112.79999999999998)"/><use xlink:href="#m" transform="matrix(1,0,0,1,260,300) translate(24.575000000000003 134.39999999999998)"/><use xlink:href="#n" transform="matrix(1,0,0,1,260,300) translate(71.475 134.39999999999998)"/><use xlink:href="#o" transform="matrix(1,0,0,1,260,300) translate(90.425 134.39999999999998)"/><use xlink:href="#p" transform="matrix(1,0,0,1,260,300) translate(36.05 156)"/><path d="M441 300h380v40H441z" stroke="#000" stroke-width="2" fill="#c7e8ac"/><use xlink:href="#q" transform="matrix(1,0,0,1,441,300) translate(171.525 23.6)"/><path d="M441 370h380v80H441z" stroke="#000" stroke-width="2" fill="#c7e8ac"/><use xlink:href="#r" transform="matrix(1,0,0,1,441,370) translate(46.30000000000001 43.6)"/><use xlink:href="#s" transform="matrix(1,0,0,1,441,370) translate(82.25000000000001 43.6)"/><use xlink:href="#t" transform="matrix(1,0,0,1,441,370) translate(135.20000000000002 43.6)"/><use xlink:href="#u" transform="matrix(1,0,0,1,441,370) translate(194.95000000000002 43.6)"/><use xlink:href="#v" transform="matrix(1,0,0,1,441,370) translate(244.8 43.6)"/><use xlink:href="#w" transform="matrix(1,0,0,1,441,370) translate(298.75 43.6)"/><path d="M442 480h379v35.5H442z" stroke="#000" stroke-width="2" fill="#c7e8ac"/><use xlink:href="#x" transform="matrix(1,0,0,1,442,480) translate(116.025 21.6)"/><use xlink:href="#y" transform="matrix(1,0,0,1,442,480) translate(184.97500000000002 21.6)"/><use xlink:href="#z" transform="matrix(1,0,0,1,442,480) translate(233.97500000000002 21.6)"/><path d="M891 165c0-2.76 2.24-5 5-5h124l27.5-21.65L1050 160h76c2.76 0 5 2.24 5 5v30c0 2.76-2.24 5-5 5H896c-2.76 0-5-2.24-5-5z" stroke="#000" stroke-width="2" fill="#83bbe5"/><use xlink:href="#A" transform="matrix(1,0,0,1,891,160) translate(15.150000000000006 23.6)"/><use xlink:href="#B" transform="matrix(1,0,0,1,891,160) translate(55.400000000000006 23.6)"/><use xlink:href="#C" transform="matrix(1,0,0,1,891,160) translate(75.4 23.6)"/><use xlink:href="#D" transform="matrix(1,0,0,1,891,160) translate(90.4 23.6)"/><use xlink:href="#E" transform="matrix(1,0,0,1,891,160) translate(132 23.6)"/><path d="M861 434.75h300v30.5H861z" stroke="#000" stroke-width="2" fill="#c7e8ac"/><use xlink:href="#F" transform="matrix(1,0,0,1,861,434.75) translate(54.94999999999999 19.1)"/><use xlink:href="#G" transform="matrix(1,0,0,1,861,434.75) translate(104.89999999999999 19.1)"/><use xlink:href="#H" transform="matrix(1,0,0,1,861,434.75) translate(158.1 19.1)"/><path d="M861 355h300v65H861z" stroke="#000" stroke-width="2" fill="#c7e8ac"/><use xlink:href="#I" transform="matrix(1,0,0,1,861,355) translate(37.125 14.500000000000002)"/><use xlink:href="#J" transform="matrix(1,0,0,1,861,355) translate(84.075 14.500000000000002)"/><use xlink:href="#K" transform="matrix(1,0,0,1,861,355) translate(128.025 14.500000000000002)"/><use xlink:href="#j" transform="matrix(1,0,0,1,861,355) translate(148.025 14.500000000000002)"/><use xlink:href="#L" transform="matrix(1,0,0,1,861,355) translate(178.025 14.500000000000002)"/><use xlink:href="#M" transform="matrix(1,0,0,1,861,355) translate(10.900000000000006 36.1)"/><use xlink:href="#N" transform="matrix(1,0,0,1,861,355) translate(62.80000000000001 36.1)"/><use xlink:href="#O" transform="matrix(1,0,0,1,861,355) translate(87.80000000000001 36.1)"/><use xlink:href="#P" transform="matrix(1,0,0,1,861,355) translate(117.80000000000001 36.1)"/><use xlink:href="#Q" transform="matrix(1,0,0,1,861,355) translate(170.65 36.1)"/><use xlink:href="#O" transform="matrix(1,0,0,1,861,355) translate(217.55 36.1)"/><use xlink:href="#R" transform="matrix(1,0,0,1,861,355) translate(247.55 36.1)"/><use xlink:href="#O" transform="matrix(1,0,0,1,861,355) translate(94.525 57.7)"/><use xlink:href="#S" transform="matrix(1,0,0,1,861,355) translate(124.525 57.7)"/><use xlink:href="#T" transform="matrix(1,0,0,1,861,355) translate(177.47500000000002 57.7)"/><path d="M856 620h75v60h-75z" stroke="#000" stroke-opacity="0" stroke-width="2" fill="#fff" fill-opacity="0"/><g><use xlink:href="#U" transform="matrix(1,0,0,1,861,625) translate(5.5 28.6)"/></g><path d="M450 700h380v49H450z" stroke="#000" stroke-width="2" fill="#c7e8ac"/><g><use xlink:href="#V" transform="matrix(1,0,0,1,450,700) translate(152.525 17.299999999999997)"/><use xlink:href="#W" transform="matrix(1,0,0,1,450,700) translate(36.79999999999998 38.9)"/><use xlink:href="#X" transform="matrix(1,0,0,1,450,700) translate(133.6 38.9)"/><use xlink:href="#Y" transform="matrix(1,0,0,1,450,700) translate(171.5 38.9)"/><use xlink:href="#Z" transform="matrix(1,0,0,1,450,700) translate(231.45000000000002 38.9)"/><use xlink:href="#w" transform="matrix(1,0,0,1,450,700) translate(308.25 38.9)"/></g><path d="M450 769h380v31H450z" stroke="#000" stroke-width="2" fill="#c7e8ac"/><g><use xlink:href="#aa" transform="matrix(1,0,0,1,450,769) translate(48.64999999999998 19.1)"/><use xlink:href="#ab" transform="matrix(1,0,0,1,450,769) translate(110.54999999999998 19.1)"/><use xlink:href="#ac" transform="matrix(1,0,0,1,450,769) translate(175.45 19.1)"/><use xlink:href="#ad" transform="matrix(1,0,0,1,450,769) translate(222.35 19.1)"/><use xlink:href="#ae" transform="matrix(1,0,0,1,450,769) translate(242.35 19.1)"/><use xlink:href="#af" transform="matrix(1,0,0,1,450,769) translate(272.35 19.1)"/></g><path d="M451 631h380v49H451z" stroke="#000" stroke-width="2" fill="#c7e8ac"/><g><use xlink:href="#ag" transform="matrix(1,0,0,1,451,631) translate(10.300000000000011 17.299999999999997)"/><use xlink:href="#ae" transform="matrix(1,0,0,1,451,631) translate(35.20000000000001 17.299999999999997)"/><use xlink:href="#ah" transform="matrix(1,0,0,1,451,631) translate(65.20000000000002 17.299999999999997)"/><use xlink:href="#ai" transform="matrix(1,0,0,1,451,631) translate(124.95 17.299999999999997)"/><use xlink:href="#aj" transform="matrix(1,0,0,1,451,631) translate(159.95 17.299999999999997)"/><use xlink:href="#ak" transform="matrix(1,0,0,1,451,631) translate(190.89999999999998 17.299999999999997)"/><use xlink:href="#al" transform="matrix(1,0,0,1,451,631) translate(234.89999999999998 17.299999999999997)"/><use xlink:href="#ae" transform="matrix(1,0,0,1,451,631) translate(253.84999999999997 17.299999999999997)"/><use xlink:href="#am" transform="matrix(1,0,0,1,451,631) translate(283.84999999999997 17.299999999999997)"/><use xlink:href="#an" transform="matrix(1,0,0,1,451,631) translate(43.67499999999998 38.9)"/><use xlink:href="#ao" transform="matrix(1,0,0,1,451,631) translate(93.52499999999998 38.9)"/><use xlink:href="#ap" transform="matrix(1,0,0,1,451,631) translate(147.475 38.9)"/><use xlink:href="#aq" transform="matrix(1,0,0,1,451,631) translate(196.475 38.9)"/><use xlink:href="#ar" transform="matrix(1,0,0,1,451,631) translate(233.475 38.9)"/><use xlink:href="#as" transform="matrix(1,0,0,1,451,631) translate(301.375 38.9)"/></g><path d="M1161 387.5h29V560H330v32" stroke="#000" stroke-width="2" fill="none"/><path/><path d="M330 592l-4.64-14.27h9.28z"/><path d="M331.05 592h-2.1L324 576.73h12zm-4.3-13.27l3.25 10.03 3.26-10.03z"/><path d="M1010 965c0-2.76 2.24-5 5-5h112l27.5-21.65L1157 960h68c2.76 0 5 2.24 5 5v30c0 2.76-2.24 5-5 5h-210c-2.76 0-5-2.24-5-5z" stroke="#000" stroke-width="2" fill="#83bbe5"/><g><use xlink:href="#at" transform="matrix(1,0,0,1,1010,960) translate(56.574999999999996 14.766666666666664)"/><use xlink:href="#au" transform="matrix(1,0,0,1,1010,960) translate(99.475 14.766666666666664)"/><use xlink:href="#av" transform="matrix(1,0,0,1,1010,960) translate(6.404320987654302 34.41111111111111)"/><use xlink:href="#aw" transform="matrix(1,0,0,1,1010,960) translate(39.2006172839506 34.41111111111111)"/><use xlink:href="#ax" transform="matrix(1,0,0,1,1010,960) translate(65.12654320987653 34.41111111111111)"/><use xlink:href="#ay" transform="matrix(1,0,0,1,1010,960) translate(103.97222222222221 34.41111111111111)"/><use xlink:href="#az" transform="matrix(1,0,0,1,1010,960) translate(141.9537037037037 34.41111111111111)"/><use xlink:href="#aA" transform="matrix(1,0,0,1,1010,960) translate(157.46604938271605 34.41111111111111)"/></g><path d="M1010 1015h220v20h-220z" stroke="#000" stroke-width="2" fill="#c7e8ac"/><g><use xlink:href="#aB" transform="matrix(1,0,0,1,1010,1015) translate(57.225 14.4)"/><use xlink:href="#aC" transform="matrix(1,0,0,1,1010,1015) translate(90.82499999999999 14.4)"/></g><path d="M361 280h80v260h-80z" fill="none"/><path d="M441 540c-8.97 0-16.25-7.28-16.25-16.25v-97.5c0-8.97-7.28-16.25-16.25-16.25 8.97 0 16.25-7.28 16.25-16.25v-97.5c0-8.97 7.28-16.25 16.25-16.25" stroke="#000" stroke-width="2" fill="none"/><path d="M816 345h40v135h-40z" fill="none"/><path d="M856 480c-4.66 0-8.44-3.78-8.44-8.44v-50.62c0-4.66-3.78-8.44-8.43-8.44 4.65 0 8.43-3.78 8.43-8.44v-50.62c0-4.66 3.78-8.44 8.44-8.44" stroke="#000" stroke-width="2" fill="none"/><path d="M361 592h80v240h-80z" fill="none"/><path d="M441 832c-8.28 0-15-6.72-15-15v-90c0-8.28-6.72-15-15-15 8.28 0 15-6.72 15-15v-90c0-8.28 6.72-15 15-15" stroke="#000" stroke-width="2" fill="none"/><path d="M1015 1040h210v60.93h-210z" fill="none"/><path d="M1225 1100.93c-2.1 0-3.8-1.7-3.8-3.8v-22.86c0-2.1-1.7-3.8-3.82-3.8 2.1 0 3.8-1.7 3.8-3.8v-22.86c0-2.1 1.72-3.8 3.82-3.8" stroke="#000" stroke-width="2" fill="none"/><g><use xlink:href="#aD" transform="matrix(1,0,0,1,1015,1040) translate(44.599999999999994 14.4)"/><use xlink:href="#aE" transform="matrix(1,0,0,1,1015,1040) translate(120.5 14.4)"/><use xlink:href="#aF" transform="matrix(1,0,0,1,1015,1040) translate(141.45 14.4)"/><use xlink:href="#aG" transform="matrix(1,0,0,1,1015,1040) translate(0.7249999999999943 36)"/><use xlink:href="#aH" transform="matrix(1,0,0,1,1015,1040) translate(98.675 36)"/><use xlink:href="#aI" transform="matrix(1,0,0,1,1015,1040) translate(126.32499999999999 36)"/><use xlink:href="#aJ" transform="matrix(1,0,0,1,1015,1040) translate(173.275 36)"/><use xlink:href="#aK" transform="matrix(1,0,0,1,1015,1040) translate(28.525000000000006 57.6)"/><use xlink:href="#aL" transform="matrix(1,0,0,1,1015,1040) translate(88.525 57.6)"/></g><path d="M980 520h152l28 28v112H980z" stroke="#d9be60" stroke-width="2" fill="#ffdf71"/><path d="M1132 520l28 28h-28z" fill="#d9be60"/><g><use xlink:href="#aM" transform="matrix(1,0,0,1,985,525) translate(18.099999999999994 14.600000000000003)"/><use xlink:href="#aN" transform="matrix(1,0,0,1,985,525) translate(65.05 14.600000000000003)"/><use xlink:href="#aO" transform="matrix(1,0,0,1,985,525) translate(109 14.600000000000003)"/><use xlink:href="#aP" transform="matrix(1,0,0,1,985,525) translate(11.149999999999991 36.2)"/><use xlink:href="#aQ" transform="matrix(1,0,0,1,985,525) translate(43.04999999999999 36.2)"/><use xlink:href="#aR" transform="matrix(1,0,0,1,985,525) translate(63.04999999999999 36.2)"/><use xlink:href="#aS" transform="matrix(1,0,0,1,985,525) translate(135.95 36.2)"/><use xlink:href="#aT" transform="matrix(1,0,0,1,985,525) translate(85 57.800000000000004)"/><use xlink:href="#aU" transform="matrix(1,0,0,1,985,525) translate(5.599999999999994 79.40000000000002)"/><use xlink:href="#aV" transform="matrix(1,0,0,1,985,525) translate(20.599999999999994 79.40000000000002)"/><use xlink:href="#aW" transform="matrix(1,0,0,1,985,525) translate(38.55 79.40000000000002)"/><use xlink:href="#aX" transform="matrix(1,0,0,1,985,525) translate(68.55 79.40000000000002)"/><use xlink:href="#aY" transform="matrix(1,0,0,1,985,525) translate(106.5 79.40000000000002)"/><use xlink:href="#aZ" transform="matrix(1,0,0,1,985,525) translate(134.4 79.40000000000002)"/><use xlink:href="#ba" transform="matrix(1,0,0,1,985,525) translate(22.599999999999994 101.00000000000001)"/><use xlink:href="#bb" transform="matrix(1,0,0,1,985,525) translate(70.5 101.00000000000001)"/><use xlink:href="#aQ" transform="matrix(1,0,0,1,985,525) translate(102.4 101.00000000000001)"/><use xlink:href="#bc" transform="matrix(1,0,0,1,985,525) translate(122.4 101.00000000000001)"/><use xlink:href="#bd" transform="matrix(1,0,0,1,985,525) translate(37.099999999999994 122.60000000000001)"/><use xlink:href="#be" transform="matrix(1,0,0,1,985,525) translate(110 122.60000000000001)"/></g><path d="M1000 920h80v40h-80z" stroke="#000" stroke-opacity="0" stroke-width="2" fill="#fff" fill-opacity="0"/><g><use xlink:href="#bf" transform="matrix(1,0,0,1,1005,925) translate(12.62654320987654 19.88888888888889)"/></g><path d="M1011 200v77.5h-.25V355" stroke="#000" stroke-width="2" fill="none"/><path/><path d="M1010.75 355l-4.64-14.27h9.28z"/><path d="M1011.8 355h-2.1l-4.97-15.27h12.03zm-4.3-13.27l3.25 10.03 3.25-10.03z"/><defs><path d="M127-220V0H93v-220H8v-28h204v28h-85" id="bg"/><path d="M100-194c63 0 86 42 84 106H49c0 40 14 67 53 68 26 1 43-12 49-29l28 8c-11 28-37 45-77 45C44 4 14-33 15-96c1-61 26-98 85-98zm52 81c6-60-76-77-97-28-3 7-6 17-6 28h103" id="bh"/><path d="M141 0L90-78 38 0H4l68-98-65-92h35l48 74 47-74h35l-64 92 68 98h-35" id="bi"/><path d="M59-47c-2 24 18 29 38 22v24C64 9 27 4 27-40v-127H5v-23h24l9-43h21v43h35v23H59v120" id="bj"/><g id="a"><use transform="matrix(0.05,0,0,0.05,0,0)" xlink:href="#bg"/><use transform="matrix(0.05,0,0,0.05,8.950000000000001,0)" xlink:href="#bh"/><use transform="matrix(0.05,0,0,0.05,18.950000000000003,0)" xlink:href="#bi"/><use transform="matrix(0.05,0,0,0.05,27.950000000000003,0)" xlink:href="#bj"/></g><path d="M266 0h-40l-56-210L115 0H75L2-248h35L96-30l15-64 43-154h32l59 218 59-218h35" id="bk"/><path d="M115-194c53 0 69 39 70 98 0 66-23 100-70 100C84 3 66-7 56-30L54 0H23l1-261h32v101c10-23 28-34 59-34zm-8 174c40 0 45-34 45-75 0-40-5-75-45-74-42 0-51 32-51 76 0 43 10 73 51 73" id="bl"/><g id="b"><use transform="matrix(0.05,0,0,0.05,0,0)" xlink:href="#bk"/><use transform="matrix(0.05,0,0,0.05,16.599999999999998,0)" xlink:href="#bh"/><use transform="matrix(0.05,0,0,0.05,26.599999999999994,0)" xlink:href="#bl"/></g><path d="M30-248c87 1 191-15 191 75 0 78-77 80-158 76V0H30v-248zm33 125c57 0 124 11 124-50 0-59-68-47-124-48v98" id="bm"/><path d="M84 4C-5 8 30-112 23-190h32v120c0 31 7 50 39 49 72-2 45-101 50-169h31l1 190h-30c-1-10 1-25-2-33-11 22-28 36-60 37" id="bn"/><path d="M24 0v-261h32V0H24" id="bo"/><path d="M24-231v-30h32v30H24zM24 0v-190h32V0H24" id="bp"/><path d="M96-169c-40 0-48 33-48 73s9 75 48 75c24 0 41-14 43-38l32 2c-6 37-31 61-74 61-59 0-76-41-82-99-10-93 101-131 147-64 4 7 5 14 7 22l-32 3c-4-21-16-35-41-35" id="bq"/><path d="M141-36C126-15 110 5 73 4 37 3 15-17 15-53c-1-64 63-63 125-63 3-35-9-54-41-54-24 1-41 7-42 31l-33-3c5-37 33-52 76-52 45 0 72 20 72 64v82c-1 20 7 32 28 27v20c-31 9-61-2-59-35zM48-53c0 20 12 33 32 33 41-3 63-29 60-74-43 2-92-5-92 41" id="br"/><path d="M100-194c62-1 85 37 85 99 1 63-27 99-86 99S16-35 15-95c0-66 28-99 85-99zM99-20c44 1 53-31 53-75 0-43-8-75-51-75s-53 32-53 75 10 74 51 75" id="bs"/><path d="M117-194c89-4 53 116 60 194h-32v-121c0-31-8-49-39-48C34-167 62-67 57 0H25l-1-190h30c1 10-1 24 2 32 11-22 29-35 61-36" id="bt"/><g id="c"><use transform="matrix(0.05,0,0,0.05,0,0)" xlink:href="#bm"/><use transform="matrix(0.05,0,0,0.05,12,0)" xlink:href="#bn"/><use transform="matrix(0.05,0,0,0.05,22,0)" xlink:href="#bl"/><use transform="matrix(0.05,0,0,0.05,32,0)" xlink:href="#bo"/><use transform="matrix(0.05,0,0,0.05,35.95,0)" xlink:href="#bp"/><use transform="matrix(0.05,0,0,0.05,39.900000000000006,0)" xlink:href="#bq"/><use transform="matrix(0.05,0,0,0.05,48.900000000000006,0)" xlink:href="#br"/><use transform="matrix(0.05,0,0,0.05,58.900000000000006,0)" xlink:href="#bj"/><use transform="matrix(0.05,0,0,0.05,63.900000000000006,0)" xlink:href="#bp"/><use transform="matrix(0.05,0,0,0.05,67.85000000000001,0)" xlink:href="#bs"/><use transform="matrix(0.05,0,0,0.05,77.85000000000001,0)" xlink:href="#bt"/></g><path d="M87 75C49 33 22-17 22-94c0-76 28-126 65-167h31c-38 41-64 92-64 168S80 34 118 75H87" id="bu"/><path d="M33-261c38 41 65 92 65 168S71 34 33 75H2C39 34 66-17 66-93S39-220 2-261h31" id="bv"/><g id="d"><use transform="matrix(0.05,0,0,0.05,0,0)" xlink:href="#bu"/><use transform="matrix(0.05,0,0,0.05,5.95,0)" xlink:href="#bk"/><use transform="matrix(0.05,0,0,0.05,22.9,0)" xlink:href="#bm"/><use transform="matrix(0.05,0,0,0.05,34.9,0)" xlink:href="#bv"/></g><path d="M240 0l2-218c-23 76-54 145-80 218h-23L58-218 59 0H30v-248h44l77 211c21-75 51-140 76-211h43V0h-30" id="bw"/><path d="M101-234c-31-9-42 10-38 44h38v23H63V0H32v-167H5v-23h27c-7-52 17-82 69-68v24" id="bx"/><path d="M135-143c-3-34-86-38-87 0 15 53 115 12 119 90S17 21 10-45l28-5c4 36 97 45 98 0-10-56-113-15-118-90-4-57 82-63 122-42 12 7 21 19 24 35" id="by"/><g id="e"><use transform="matrix(0.05,0,0,0.05,0,0)" xlink:href="#bw"/><use transform="matrix(0.05,0,0,0.05,14.950000000000001,0)" xlink:href="#br"/><use transform="matrix(0.05,0,0,0.05,24.950000000000003,0)" xlink:href="#bt"/><use transform="matrix(0.05,0,0,0.05,34.95,0)" xlink:href="#bp"/><use transform="matrix(0.05,0,0,0.05,38.900000000000006,0)" xlink:href="#bx"/><use transform="matrix(0.05,0,0,0.05,43.900000000000006,0)" xlink:href="#bh"/><use transform="matrix(0.05,0,0,0.05,53.900000000000006,0)" xlink:href="#by"/><use transform="matrix(0.05,0,0,0.05,62.900000000000006,0)" xlink:href="#bj"/></g><path d="M153-248C145-148 188 4 80 4 36 3 13-21 6-62l32-5c4 25 16 42 43 43 27 0 39-20 39-49v-147H72v-28h81" id="bz"/><path d="M185-189c-5-48-123-54-124 2 14 75 158 14 163 119 3 78-121 87-175 55-17-10-28-26-33-46l33-7c5 56 141 63 141-1 0-78-155-14-162-118-5-82 145-84 179-34 5 7 8 16 11 25" id="bA"/><path d="M140-251c81 0 123 46 123 126C263-46 219 4 140 4 59 4 17-45 17-125s42-126 123-126zm0 227c63 0 89-41 89-101s-29-99-89-99c-61 0-89 39-89 99S79-25 140-24" id="bB"/><path d="M190 0L58-211 59 0H30v-248h39L202-35l-2-213h31V0h-41" id="bC"/><g id="f"><use transform="matrix(0.05,0,0,0.05,0,0)" xlink:href="#bu"/><use transform="matrix(0.05,0,0,0.05,5.95,0)" xlink:href="#bz"/><use transform="matrix(0.05,0,0,0.05,14.949999999999998,0)" xlink:href="#bA"/><use transform="matrix(0.05,0,0,0.05,26.950000000000003,0)" xlink:href="#bB"/><use transform="matrix(0.05,0,0,0.05,40.95,0)" xlink:href="#bC"/><use transform="matrix(0.05,0,0,0.05,53.900000000000006,0)" xlink:href="#bv"/></g><path d="M205 0l-28-72H64L36 0H1l101-248h38L239 0h-34zm-38-99l-47-123c-12 45-31 82-46 123h93" id="bD"/><g id="g"><use transform="matrix(0.05,0,0,0.05,0,0)" xlink:href="#bD"/><use transform="matrix(0.05,0,0,0.05,12,0)" xlink:href="#bq"/><use transform="matrix(0.05,0,0,0.05,21,0)" xlink:href="#bj"/><use transform="matrix(0.05,0,0,0.05,26,0)" xlink:href="#bn"/><use transform="matrix(0.05,0,0,0.05,36,0)" xlink:href="#br"/><use transform="matrix(0.05,0,0,0.05,46,0)" xlink:href="#bo"/></g><g id="h"><use transform="matrix(0.05,0,0,0.05,0,0)" xlink:href="#bq"/><use transform="matrix(0.05,0,0,0.05,9,0)" xlink:href="#bs"/><use transform="matrix(0.05,0,0,0.05,19,0)" xlink:href="#bt"/><use transform="matrix(0.05,0,0,0.05,29,0)" xlink:href="#bj"/><use transform="matrix(0.05,0,0,0.05,34,0)" xlink:href="#bh"/><use transform="matrix(0.05,0,0,0.05,44,0)" xlink:href="#bt"/><use transform="matrix(0.05,0,0,0.05,54,0)" xlink:href="#bj"/><use transform="matrix(0.05,0,0,0.05,59,0)" xlink:href="#by"/></g><g id="i"><use transform="matrix(0.05,0,0,0.05,0,0)" xlink:href="#bD"/><use transform="matrix(0.05,0,0,0.05,12,0)" xlink:href="#bo"/><use transform="matrix(0.05,0,0,0.05,15.949999999999998,0)" xlink:href="#bo"/></g><path d="M106-169C34-169 62-67 57 0H25v-261h32l-1 103c12-21 28-36 61-36 89 0 53 116 60 194h-32v-121c2-32-8-49-39-48" id="bE"/><g id="j"><use transform="matrix(0.05,0,0,0.05,0,0)" xlink:href="#bj"/><use transform="matrix(0.05,0,0,0.05,5,0)" xlink:href="#bE"/><use transform="matrix(0.05,0,0,0.05,15,0)" xlink:href="#bh"/></g><path d="M114-163C36-179 61-72 57 0H25l-1-190h30c1 12-1 29 2 39 6-27 23-49 58-41v29" id="bF"/><g id="k"><use transform="matrix(0.05,0,0,0.05,0,0)" xlink:href="#bF"/><use transform="matrix(0.05,0,0,0.05,5.95,0)" xlink:href="#bh"/><use transform="matrix(0.05,0,0,0.05,15.949999999999998,0)" xlink:href="#br"/><use transform="matrix(0.05,0,0,0.05,25.950000000000003,0)" xlink:href="#bo"/></g><path d="M177-190C167-65 218 103 67 71c-23-6-38-20-44-43l32-5c15 47 100 32 89-28v-30C133-14 115 1 83 1 29 1 15-40 15-95c0-56 16-97 71-98 29-1 48 16 59 35 1-10 0-23 2-32h30zM94-22c36 0 50-32 50-73 0-42-14-75-50-75-39 0-46 34-46 75s6 73 46 73" id="bG"/><g id="l"><use transform="matrix(0.05,0,0,0.05,0,0)" xlink:href="#bj"/><use transform="matrix(0.05,0,0,0.05,5,0)" xlink:href="#bE"/><use transform="matrix(0.05,0,0,0.05,15,0)" xlink:href="#bp"/><use transform="matrix(0.05,0,0,0.05,18.95,0)" xlink:href="#bt"/><use transform="matrix(0.05,0,0,0.05,28.950000000000003,0)" xlink:href="#bG"/><use transform="matrix(0.05,0,0,0.05,38.95,0)" xlink:href="#by"/></g><path d="M85-194c31 0 48 13 60 33l-1-100h32l1 261h-30c-2-10 0-23-3-31C134-8 116 4 85 4 32 4 16-35 15-94c0-66 23-100 70-100zm9 24c-40 0-46 34-46 75 0 40 6 74 45 74 42 0 51-32 51-76 0-42-9-74-50-73" id="bH"/><g id="m"><use transform="matrix(0.05,0,0,0.05,0,0)" xlink:href="#bo"/><use transform="matrix(0.05,0,0,0.05,3.95,0)" xlink:href="#bp"/><use transform="matrix(0.05,0,0,0.05,7.9,0)" xlink:href="#by"/><use transform="matrix(0.05,0,0,0.05,16.9,0)" xlink:href="#bj"/><use transform="matrix(0.05,0,0,0.05,21.9,0)" xlink:href="#bh"/><use transform="matrix(0.05,0,0,0.05,31.899999999999995,0)" xlink:href="#bH"/></g><g id="n"><use transform="matrix(0.05,0,0,0.05,0,0)" xlink:href="#bp"/><use transform="matrix(0.05,0,0,0.05,3.95,0)" xlink:href="#bt"/></g><g id="o"><use transform="matrix(0.05,0,0,0.05,0,0)" xlink:href="#bj"/><use transform="matrix(0.05,0,0,0.05,5,0)" xlink:href="#bE"/><use transform="matrix(0.05,0,0,0.05,15,0)" xlink:href="#bh"/></g><path d="M210-169c-67 3-38 105-44 169h-31v-121c0-29-5-50-35-48C34-165 62-65 56 0H25l-1-190h30c1 10-1 24 2 32 10-44 99-50 107 0 11-21 27-35 58-36 85-2 47 119 55 194h-31v-121c0-29-5-49-35-48" id="bI"/><g id="p"><use transform="matrix(0.05,0,0,0.05,0,0)" xlink:href="#bI"/><use transform="matrix(0.05,0,0,0.05,14.950000000000001,0)" xlink:href="#br"/><use transform="matrix(0.05,0,0,0.05,24.950000000000003,0)" xlink:href="#bt"/><use transform="matrix(0.05,0,0,0.05,34.95,0)" xlink:href="#bp"/><use transform="matrix(0.05,0,0,0.05,38.900000000000006,0)" xlink:href="#bx"/><use transform="matrix(0.05,0,0,0.05,43.900000000000006,0)" xlink:href="#bh"/><use transform="matrix(0.05,0,0,0.05,53.900000000000006,0)" xlink:href="#by"/><use transform="matrix(0.05,0,0,0.05,62.900000000000006,0)" xlink:href="#bj"/></g><path d="M212-179c-10-28-35-45-73-45-59 0-87 40-87 99 0 60 29 101 89 101 43 0 62-24 78-52l27 14C228-24 195 4 139 4 59 4 22-46 18-125c-6-104 99-153 187-111 19 9 31 26 39 46" id="bJ"/><g id="q"><use transform="matrix(0.05,0,0,0.05,0,0)" xlink:href="#bJ"/><use transform="matrix(0.05,0,0,0.05,12.950000000000001,0)" xlink:href="#bA"/><use transform="matrix(0.05,0,0,0.05,24.950000000000003,0)" xlink:href="#bA"/></g><g id="r"><use transform="matrix(0.05,0,0,0.05,0,0)" xlink:href="#bg"/><use transform="matrix(0.05,0,0,0.05,10.950000000000001,0)" xlink:href="#bE"/><use transform="matrix(0.05,0,0,0.05,20.950000000000003,0)" xlink:href="#bh"/></g><g id="s"><use transform="matrix(0.05,0,0,0.05,0,0)" xlink:href="#br"/><use transform="matrix(0.05,0,0,0.05,10,0)" xlink:href="#bq"/><use transform="matrix(0.05,0,0,0.05,19,0)" xlink:href="#bj"/><use transform="matrix(0.05,0,0,0.05,24,0)" xlink:href="#bn"/><use transform="matrix(0.05,0,0,0.05,34,0)" xlink:href="#br"/><use transform="matrix(0.05,0,0,0.05,44,0)" xlink:href="#bo"/></g><path d="M47-170H22l-4-78h33" id="bK"/><g id="t"><use transform="matrix(0.05,0,0,0.05,0,0)" xlink:href="#bK"/><use transform="matrix(0.05,0,0,0.05,3.4000000000000004,0)" xlink:href="#bj"/><use transform="matrix(0.05,0,0,0.05,8.4,0)" xlink:href="#bE"/><use transform="matrix(0.05,0,0,0.05,18.4,0)" xlink:href="#bp"/><use transform="matrix(0.05,0,0,0.05,22.349999999999998,0)" xlink:href="#bt"/><use transform="matrix(0.05,0,0,0.05,32.349999999999994,0)" xlink:href="#bG"/><use transform="matrix(0.05,0,0,0.05,42.349999999999994,0)" xlink:href="#by"/><use transform="matrix(0.05,0,0,0.05,51.349999999999994,0)" xlink:href="#bK"/></g><path d="M68-38c1 34 0 65-14 84H32c9-13 17-26 17-46H33v-38h35" id="bL"/><g id="u"><use transform="matrix(0.05,0,0,0.05,0,0)" xlink:href="#bu"/><use transform="matrix(0.05,0,0,0.05,5.95,0)" xlink:href="#bE"/><use transform="matrix(0.05,0,0,0.05,15.949999999999998,0)" xlink:href="#bj"/><use transform="matrix(0.05,0,0,0.05,20.95,0)" xlink:href="#bI"/><use transform="matrix(0.05,0,0,0.05,35.9,0)" xlink:href="#bo"/><use transform="matrix(0.05,0,0,0.05,39.85,0)" xlink:href="#bL"/></g><g id="v"><use transform="matrix(0.05,0,0,0.05,0,0)" xlink:href="#br"/><use transform="matrix(0.05,0,0,0.05,10,0)" xlink:href="#bn"/><use transform="matrix(0.05,0,0,0.05,20,0)" xlink:href="#bH"/><use transform="matrix(0.05,0,0,0.05,30,0)" xlink:href="#bp"/><use transform="matrix(0.05,0,0,0.05,33.95,0)" xlink:href="#bs"/><use transform="matrix(0.05,0,0,0.05,43.95,0)" xlink:href="#bL"/></g><path d="M33 0v-38h34V0H33" id="bM"/><g id="w"><use transform="matrix(0.05,0,0,0.05,0,0)" xlink:href="#bh"/><use transform="matrix(0.05,0,0,0.05,10,0)" xlink:href="#bj"/><use transform="matrix(0.05,0,0,0.05,15,0)" xlink:href="#bq"/><use transform="matrix(0.05,0,0,0.05,24,0)" xlink:href="#bM"/><use transform="matrix(0.05,0,0,0.05,29,0)" xlink:href="#bv"/></g><path d="M33 0v-248h34V0H33" id="bN"/><g id="x"><use transform="matrix(0.05,0,0,0.05,0,0)" xlink:href="#bN"/><use transform="matrix(0.05,0,0,0.05,5,0)" xlink:href="#bI"/><use transform="matrix(0.05,0,0,0.05,19.950000000000003,0)" xlink:href="#br"/><use transform="matrix(0.05,0,0,0.05,29.950000000000003,0)" xlink:href="#bG"/><use transform="matrix(0.05,0,0,0.05,39.95,0)" xlink:href="#bh"/><use transform="matrix(0.05,0,0,0.05,49.95,0)" xlink:href="#by"/><use transform="matrix(0.05,0,0,0.05,58.95,0)" xlink:href="#bL"/></g><g id="y"><use transform="matrix(0.05,0,0,0.05,0,0)" xlink:href="#bx"/><use transform="matrix(0.05,0,0,0.05,5,0)" xlink:href="#bs"/><use transform="matrix(0.05,0,0,0.05,15,0)" xlink:href="#bt"/><use transform="matrix(0.05,0,0,0.05,25,0)" xlink:href="#bj"/><use transform="matrix(0.05,0,0,0.05,30,0)" xlink:href="#by"/><use transform="matrix(0.05,0,0,0.05,39,0)" xlink:href="#bL"/></g><g id="z"><use transform="matrix(0.05,0,0,0.05,0,0)" xlink:href="#bh"/><use transform="matrix(0.05,0,0,0.05,10,0)" xlink:href="#bj"/><use transform="matrix(0.05,0,0,0.05,15,0)" xlink:href="#bq"/><use transform="matrix(0.05,0,0,0.05,24,0)" xlink:href="#bM"/></g><path d="M232-93c-1 65-40 97-104 97C67 4 28-28 28-90v-158h33c8 89-33 224 67 224 102 0 64-133 71-224h33v155" id="bO"/><path d="M233-177c-1 41-23 64-60 70L243 0h-38l-65-103H63V0H30v-248c88 3 205-21 203 71zM63-129c60-2 137 13 137-47 0-61-80-42-137-45v92" id="bP"/><path d="M30 0v-248h33v221h125V0H30" id="bQ"/><g id="A"><use transform="matrix(0.05,0,0,0.05,0,0)" xlink:href="#bO"/><use transform="matrix(0.05,0,0,0.05,12.950000000000001,0)" xlink:href="#bP"/><use transform="matrix(0.05,0,0,0.05,25.900000000000002,0)" xlink:href="#bQ"/></g><g id="B"><use transform="matrix(0.05,0,0,0.05,0,0)" xlink:href="#bs"/><use transform="matrix(0.05,0,0,0.05,10,0)" xlink:href="#bx"/></g><use transform="matrix(0.05,0,0,0.05,0,0)" xlink:href="#br" id="C"/><g id="D"><use transform="matrix(0.05,0,0,0.05,0,0)" xlink:href="#bk"/><use transform="matrix(0.05,0,0,0.05,16.599999999999998,0)" xlink:href="#bh"/><use transform="matrix(0.05,0,0,0.05,26.599999999999994,0)" xlink:href="#bl"/></g><g id="E"><use transform="matrix(0.05,0,0,0.05,0,0)" xlink:href="#bm"/><use transform="matrix(0.05,0,0,0.05,12,0)" xlink:href="#bn"/><use transform="matrix(0.05,0,0,0.05,22,0)" xlink:href="#bl"/><use transform="matrix(0.05,0,0,0.05,32,0)" xlink:href="#bo"/><use transform="matrix(0.05,0,0,0.05,35.95,0)" xlink:href="#bp"/><use transform="matrix(0.05,0,0,0.05,39.900000000000006,0)" xlink:href="#bq"/><use transform="matrix(0.05,0,0,0.05,48.900000000000006,0)" xlink:href="#br"/><use transform="matrix(0.05,0,0,0.05,58.900000000000006,0)" xlink:href="#bj"/><use transform="matrix(0.05,0,0,0.05,63.900000000000006,0)" xlink:href="#bp"/><use transform="matrix(0.05,0,0,0.05,67.85000000000001,0)" xlink:href="#bs"/><use transform="matrix(0.05,0,0,0.05,77.85000000000001,0)" xlink:href="#bt"/><use transform="matrix(0.05,0,0,0.05,87.85000000000001,0)" xlink:href="#bM"/></g><g id="F"><use transform="matrix(0.05,0,0,0.05,0,0)" xlink:href="#bB"/><use transform="matrix(0.05,0,0,0.05,14,0)" xlink:href="#bj"/><use transform="matrix(0.05,0,0,0.05,19,0)" xlink:href="#bE"/><use transform="matrix(0.05,0,0,0.05,29,0)" xlink:href="#bh"/><use transform="matrix(0.05,0,0,0.05,39,0)" xlink:href="#bF"/></g><path d="M197 0v-115H63V0H30v-248h33v105h134v-105h34V0h-34" id="bR"/><g id="G"><use transform="matrix(0.05,0,0,0.05,0,0)" xlink:href="#bR"/><use transform="matrix(0.05,0,0,0.05,12.950000000000001,0)" xlink:href="#bg"/><use transform="matrix(0.05,0,0,0.05,23.900000000000002,0)" xlink:href="#bw"/><use transform="matrix(0.05,0,0,0.05,38.85,0)" xlink:href="#bQ"/></g><g id="H"><use transform="matrix(0.05,0,0,0.05,0,0)" xlink:href="#bH"/><use transform="matrix(0.05,0,0,0.05,10,0)" xlink:href="#bs"/><use transform="matrix(0.05,0,0,0.05,20,0)" xlink:href="#bq"/><use transform="matrix(0.05,0,0,0.05,29,0)" xlink:href="#bn"/><use transform="matrix(0.05,0,0,0.05,39,0)" xlink:href="#bI"/><use transform="matrix(0.05,0,0,0.05,53.95,0)" xlink:href="#bh"/><use transform="matrix(0.05,0,0,0.05,63.95,0)" xlink:href="#bt"/><use transform="matrix(0.05,0,0,0.05,73.95,0)" xlink:href="#bj"/><use transform="matrix(0.05,0,0,0.05,78.95,0)" xlink:href="#by"/></g><path d="M30 0v-248h187v28H63v79h144v27H63v87h162V0H30" id="bS"/><path d="M179-190L93 31C79 59 56 82 12 73V49c39 6 53-20 64-50L1-190h34L92-34l54-156h33" id="bT"/><g id="I"><use transform="matrix(0.05,0,0,0.05,0,0)" xlink:href="#bS"/><use transform="matrix(0.05,0,0,0.05,12,0)" xlink:href="#bt"/><use transform="matrix(0.05,0,0,0.05,22,0)" xlink:href="#bj"/><use transform="matrix(0.05,0,0,0.05,27,0)" xlink:href="#bF"/><use transform="matrix(0.05,0,0,0.05,32.95,0)" xlink:href="#bT"/></g><path d="M115-194c55 1 70 41 70 98S169 2 115 4C84 4 66-9 55-30l1 105H24l-1-265h31l2 30c10-21 28-34 59-34zm-8 174c40 0 45-34 45-75s-6-73-45-74c-42 0-51 32-51 76 0 43 10 73 51 73" id="bU"/><g id="J"><use transform="matrix(0.05,0,0,0.05,0,0)" xlink:href="#bU"/><use transform="matrix(0.05,0,0,0.05,10,0)" xlink:href="#bs"/><use transform="matrix(0.05,0,0,0.05,20,0)" xlink:href="#bp"/><use transform="matrix(0.05,0,0,0.05,23.95,0)" xlink:href="#bt"/><use transform="matrix(0.05,0,0,0.05,33.95,0)" xlink:href="#bj"/></g><g id="K"><use transform="matrix(0.05,0,0,0.05,0,0)" xlink:href="#bj"/><use transform="matrix(0.05,0,0,0.05,5,0)" xlink:href="#bs"/></g><g id="L"><use transform="matrix(0.05,0,0,0.05,0,0)" xlink:href="#bU"/><use transform="matrix(0.05,0,0,0.05,10,0)" xlink:href="#bn"/><use transform="matrix(0.05,0,0,0.05,20,0)" xlink:href="#bl"/><use transform="matrix(0.05,0,0,0.05,30,0)" xlink:href="#bo"/><use transform="matrix(0.05,0,0,0.05,33.95,0)" xlink:href="#bp"/><use transform="matrix(0.05,0,0,0.05,37.900000000000006,0)" xlink:href="#bq"/><use transform="matrix(0.05,0,0,0.05,46.900000000000006,0)" xlink:href="#br"/><use transform="matrix(0.05,0,0,0.05,56.900000000000006,0)" xlink:href="#bj"/><use transform="matrix(0.05,0,0,0.05,61.900000000000006,0)" xlink:href="#bp"/><use transform="matrix(0.05,0,0,0.05,65.85000000000001,0)" xlink:href="#bs"/><use transform="matrix(0.05,0,0,0.05,75.85000000000001,0)" xlink:href="#bt"/></g><g id="M"><use transform="matrix(0.05,0,0,0.05,0,0)" xlink:href="#bJ"/><use transform="matrix(0.05,0,0,0.05,12.950000000000001,0)" xlink:href="#bs"/><use transform="matrix(0.05,0,0,0.05,22.950000000000003,0)" xlink:href="#bn"/><use transform="matrix(0.05,0,0,0.05,32.95,0)" xlink:href="#bo"/><use transform="matrix(0.05,0,0,0.05,36.900000000000006,0)" xlink:href="#bH"/></g><g id="N"><use transform="matrix(0.05,0,0,0.05,0,0)" xlink:href="#bl"/><use transform="matrix(0.05,0,0,0.05,10,0)" xlink:href="#bh"/></g><g id="O"><use transform="matrix(0.05,0,0,0.05,0,0)" xlink:href="#bj"/><use transform="matrix(0.05,0,0,0.05,5,0)" xlink:href="#bE"/><use transform="matrix(0.05,0,0,0.05,15,0)" xlink:href="#bh"/></g><g id="P"><use transform="matrix(0.05,0,0,0.05,0,0)" xlink:href="#br"/><use transform="matrix(0.05,0,0,0.05,10,0)" xlink:href="#bF"/><use transform="matrix(0.05,0,0,0.05,15.949999999999998,0)" xlink:href="#bj"/><use transform="matrix(0.05,0,0,0.05,20.95,0)" xlink:href="#bp"/><use transform="matrix(0.05,0,0,0.05,24.9,0)" xlink:href="#bq"/><use transform="matrix(0.05,0,0,0.05,33.9,0)" xlink:href="#bo"/><use transform="matrix(0.05,0,0,0.05,37.85,0)" xlink:href="#bh"/></g><g id="Q"><use transform="matrix(0.05,0,0,0.05,0,0)" xlink:href="#bp"/><use transform="matrix(0.05,0,0,0.05,3.95,0)" xlink:href="#bj"/><use transform="matrix(0.05,0,0,0.05,8.95,0)" xlink:href="#by"/><use transform="matrix(0.05,0,0,0.05,17.95,0)" xlink:href="#bh"/><use transform="matrix(0.05,0,0,0.05,27.950000000000003,0)" xlink:href="#bo"/><use transform="matrix(0.05,0,0,0.05,31.899999999999995,0)" xlink:href="#bx"/><use transform="matrix(0.05,0,0,0.05,36.9,0)" xlink:href="#bL"/></g><g id="R"><use transform="matrix(0.05,0,0,0.05,0,0)" xlink:href="#bg"/><use transform="matrix(0.05,0,0,0.05,10.600000000000001,0)" xlink:href="#bB"/><use transform="matrix(0.05,0,0,0.05,24.6,0)" xlink:href="#bJ"/><use transform="matrix(0.05,0,0,0.05,37.550000000000004,0)" xlink:href="#bL"/></g><path d="M108 0H70L1-190h34L89-25l56-165h34" id="bV"/><g id="S"><use transform="matrix(0.05,0,0,0.05,0,0)" xlink:href="#bq"/><use transform="matrix(0.05,0,0,0.05,9,0)" xlink:href="#bs"/><use transform="matrix(0.05,0,0,0.05,19,0)" xlink:href="#bV"/><use transform="matrix(0.05,0,0,0.05,28,0)" xlink:href="#bh"/><use transform="matrix(0.05,0,0,0.05,38,0)" xlink:href="#bF"/><use transform="matrix(0.05,0,0,0.05,42.95,0)" xlink:href="#bL"/></g><g id="T"><use transform="matrix(0.05,0,0,0.05,0,0)" xlink:href="#bh"/><use transform="matrix(0.05,0,0,0.05,10,0)" xlink:href="#bj"/><use transform="matrix(0.05,0,0,0.05,15,0)" xlink:href="#bq"/><use transform="matrix(0.05,0,0,0.05,24,0)" xlink:href="#bM"/></g><g id="U"><use transform="matrix(0.05,0,0,0.05,0,0)" xlink:href="#bN"/><use transform="matrix(0.05,0,0,0.05,5,0)" xlink:href="#bt"/><use transform="matrix(0.05,0,0,0.05,15,0)" xlink:href="#bx"/><use transform="matrix(0.05,0,0,0.05,20,0)" xlink:href="#bs"/><use transform="matrix(0.05,0,0,0.05,30,0)" xlink:href="#by"/><use transform="matrix(0.05,0,0,0.05,39,0)" xlink:href="#bh"/><use transform="matrix(0.05,0,0,0.05,49,0)" xlink:href="#bj"/></g><g id="V"><use transform="matrix(0.05,0,0,0.05,0,0)" xlink:href="#bw"/><use transform="matrix(0.05,0,0,0.05,14.950000000000001,0)" xlink:href="#bh"/><use transform="matrix(0.05,0,0,0.05,24.950000000000003,0)" xlink:href="#bj"/><use transform="matrix(0.05,0,0,0.05,29.950000000000003,0)" xlink:href="#br"/><use transform="matrix(0.05,0,0,0.05,39.95,0)" xlink:href="#bH"/><use transform="matrix(0.05,0,0,0.05,49.95,0)" xlink:href="#br"/><use transform="matrix(0.05,0,0,0.05,59.95,0)" xlink:href="#bj"/><use transform="matrix(0.05,0,0,0.05,64.95,0)" xlink:href="#br"/></g><g id="W"><use transform="matrix(0.05,0,0,0.05,0,0)" xlink:href="#bu"/><use transform="matrix(0.05,0,0,0.05,5.95,0)" xlink:href="#bU"/><use transform="matrix(0.05,0,0,0.05,15.949999999999998,0)" xlink:href="#bn"/><use transform="matrix(0.05,0,0,0.05,25.950000000000003,0)" xlink:href="#bl"/><use transform="matrix(0.05,0,0,0.05,35.95,0)" xlink:href="#bo"/><use transform="matrix(0.05,0,0,0.05,39.900000000000006,0)" xlink:href="#bp"/><use transform="matrix(0.05,0,0,0.05,43.85000000000001,0)" xlink:href="#bq"/><use transform="matrix(0.05,0,0,0.05,52.85,0)" xlink:href="#br"/><use transform="matrix(0.05,0,0,0.05,62.85,0)" xlink:href="#bj"/><use transform="matrix(0.05,0,0,0.05,67.85000000000001,0)" xlink:href="#bp"/><use transform="matrix(0.05,0,0,0.05,71.80000000000001,0)" xlink:href="#bs"/><use transform="matrix(0.05,0,0,0.05,81.80000000000001,0)" xlink:href="#bt"/></g><g id="X"><use transform="matrix(0.05,0,0,0.05,0,0)" xlink:href="#bj"/><use transform="matrix(0.05,0,0,0.05,5,0)" xlink:href="#bp"/><use transform="matrix(0.05,0,0,0.05,8.95,0)" xlink:href="#bj"/><use transform="matrix(0.05,0,0,0.05,13.949999999999998,0)" xlink:href="#bo"/><use transform="matrix(0.05,0,0,0.05,17.9,0)" xlink:href="#bh"/><use transform="matrix(0.05,0,0,0.05,27.899999999999995,0)" xlink:href="#bL"/></g><g id="Y"><use transform="matrix(0.05,0,0,0.05,0,0)" xlink:href="#br"/><use transform="matrix(0.05,0,0,0.05,10,0)" xlink:href="#bn"/><use transform="matrix(0.05,0,0,0.05,20,0)" xlink:href="#bj"/><use transform="matrix(0.05,0,0,0.05,25,0)" xlink:href="#bE"/><use transform="matrix(0.05,0,0,0.05,35,0)" xlink:href="#bs"/><use transform="matrix(0.05,0,0,0.05,45,0)" xlink:href="#bF"/><use transform="matrix(0.05,0,0,0.05,49.95,0)" xlink:href="#bL"/></g><g id="Z"><use transform="matrix(0.05,0,0,0.05,0,0)" xlink:href="#bp"/><use transform="matrix(0.05,0,0,0.05,3.95,0)" xlink:href="#bH"/><use transform="matrix(0.05,0,0,0.05,13.949999999999998,0)" xlink:href="#bh"/><use transform="matrix(0.05,0,0,0.05,23.95,0)" xlink:href="#bt"/><use transform="matrix(0.05,0,0,0.05,33.95,0)" xlink:href="#bj"/><use transform="matrix(0.05,0,0,0.05,38.95,0)" xlink:href="#bp"/><use transform="matrix(0.05,0,0,0.05,42.900000000000006,0)" xlink:href="#bx"/><use transform="matrix(0.05,0,0,0.05,47.900000000000006,0)" xlink:href="#bp"/><use transform="matrix(0.05,0,0,0.05,51.85,0)" xlink:href="#bh"/><use transform="matrix(0.05,0,0,0.05,61.85,0)" xlink:href="#bF"/><use transform="matrix(0.05,0,0,0.05,66.80000000000001,0)" xlink:href="#bL"/></g><path d="M30-248c118-7 216 8 213 122C240-48 200 0 122 0H30v-248zM63-27c89 8 146-16 146-99s-60-101-146-95v194" id="bW"/><g id="aa"><use transform="matrix(0.05,0,0,0.05,0,0)" xlink:href="#bW"/><use transform="matrix(0.05,0,0,0.05,12.950000000000001,0)" xlink:href="#bh"/><use transform="matrix(0.05,0,0,0.05,22.950000000000003,0)" xlink:href="#bx"/><use transform="matrix(0.05,0,0,0.05,27.950000000000003,0)" xlink:href="#br"/><use transform="matrix(0.05,0,0,0.05,37.95,0)" xlink:href="#bn"/><use transform="matrix(0.05,0,0,0.05,47.95,0)" xlink:href="#bo"/><use transform="matrix(0.05,0,0,0.05,51.900000000000006,0)" xlink:href="#bj"/></g><g id="ab"><use transform="matrix(0.05,0,0,0.05,0,0)" xlink:href="#bF"/><use transform="matrix(0.05,0,0,0.05,5.95,0)" xlink:href="#bh"/><use transform="matrix(0.05,0,0,0.05,15.949999999999998,0)" xlink:href="#br"/><use transform="matrix(0.05,0,0,0.05,25.950000000000003,0)" xlink:href="#bH"/><use transform="matrix(0.05,0,0,0.05,35.95,0)" xlink:href="#bp"/><use transform="matrix(0.05,0,0,0.05,39.900000000000006,0)" xlink:href="#bt"/><use transform="matrix(0.05,0,0,0.05,49.900000000000006,0)" xlink:href="#bG"/></g><g id="ac"><use transform="matrix(0.05,0,0,0.05,0,0)" xlink:href="#bs"/><use transform="matrix(0.05,0,0,0.05,10,0)" xlink:href="#bF"/><use transform="matrix(0.05,0,0,0.05,15.949999999999998,0)" xlink:href="#bH"/><use transform="matrix(0.05,0,0,0.05,25.950000000000003,0)" xlink:href="#bh"/><use transform="matrix(0.05,0,0,0.05,35.95,0)" xlink:href="#bF"/></g><g id="ad"><use transform="matrix(0.05,0,0,0.05,0,0)" xlink:href="#bs"/><use transform="matrix(0.05,0,0,0.05,10,0)" xlink:href="#bx"/></g><g id="ae"><use transform="matrix(0.05,0,0,0.05,0,0)" xlink:href="#bj"/><use transform="matrix(0.05,0,0,0.05,5,0)" xlink:href="#bE"/><use transform="matrix(0.05,0,0,0.05,15,0)" xlink:href="#bh"/></g><g id="af"><use transform="matrix(0.05,0,0,0.05,0,0)" xlink:href="#bq"/><use transform="matrix(0.05,0,0,0.05,9,0)" xlink:href="#bs"/><use transform="matrix(0.05,0,0,0.05,19,0)" xlink:href="#bt"/><use transform="matrix(0.05,0,0,0.05,29,0)" xlink:href="#bj"/><use transform="matrix(0.05,0,0,0.05,34,0)" xlink:href="#bh"/><use transform="matrix(0.05,0,0,0.05,44,0)" xlink:href="#bt"/><use transform="matrix(0.05,0,0,0.05,54,0)" xlink:href="#bj"/></g><g id="ag"><use transform="matrix(0.05,0,0,0.05,0,0)" xlink:href="#bD"/><use transform="matrix(0.05,0,0,0.05,12,0)" xlink:href="#bo"/><use transform="matrix(0.05,0,0,0.05,15.949999999999998,0)" xlink:href="#bo"/></g><g id="ah"><use transform="matrix(0.05,0,0,0.05,0,0)" xlink:href="#bK"/><use transform="matrix(0.05,0,0,0.05,3.4000000000000004,0)" xlink:href="#bj"/><use transform="matrix(0.05,0,0,0.05,8.4,0)" xlink:href="#bE"/><use transform="matrix(0.05,0,0,0.05,18.4,0)" xlink:href="#bp"/><use transform="matrix(0.05,0,0,0.05,22.349999999999998,0)" xlink:href="#bt"/><use transform="matrix(0.05,0,0,0.05,32.349999999999994,0)" xlink:href="#bG"/><use transform="matrix(0.05,0,0,0.05,42.349999999999994,0)" xlink:href="#by"/><use transform="matrix(0.05,0,0,0.05,51.349999999999994,0)" xlink:href="#bK"/></g><g id="ai"><use transform="matrix(0.05,0,0,0.05,0,0)" xlink:href="#bj"/><use transform="matrix(0.05,0,0,0.05,5,0)" xlink:href="#bE"/><use transform="matrix(0.05,0,0,0.05,15,0)" xlink:href="#br"/><use transform="matrix(0.05,0,0,0.05,25,0)" xlink:href="#bj"/></g><g id="aj"><use transform="matrix(0.05,0,0,0.05,0,0)" xlink:href="#br"/><use transform="matrix(0.05,0,0,0.05,10,0)" xlink:href="#bF"/><use transform="matrix(0.05,0,0,0.05,15.949999999999998,0)" xlink:href="#bh"/></g><g id="ak"><use transform="matrix(0.05,0,0,0.05,0,0)" xlink:href="#bn"/><use transform="matrix(0.05,0,0,0.05,10,0)" xlink:href="#by"/><use transform="matrix(0.05,0,0,0.05,19,0)" xlink:href="#bh"/><use transform="matrix(0.05,0,0,0.05,29,0)" xlink:href="#bH"/></g><g id="al"><use transform="matrix(0.05,0,0,0.05,0,0)" xlink:href="#bp"/><use transform="matrix(0.05,0,0,0.05,3.95,0)" xlink:href="#bt"/></g><g id="am"><use transform="matrix(0.05,0,0,0.05,0,0)" xlink:href="#bU"/><use transform="matrix(0.05,0,0,0.05,10,0)" xlink:href="#bn"/><use transform="matrix(0.05,0,0,0.05,20,0)" xlink:href="#bl"/><use transform="matrix(0.05,0,0,0.05,30,0)" xlink:href="#bo"/><use transform="matrix(0.05,0,0,0.05,33.95,0)" xlink:href="#bp"/><use transform="matrix(0.05,0,0,0.05,37.900000000000006,0)" xlink:href="#bq"/><use transform="matrix(0.05,0,0,0.05,46.900000000000006,0)" xlink:href="#br"/><use transform="matrix(0.05,0,0,0.05,56.900000000000006,0)" xlink:href="#bj"/><use transform="matrix(0.05,0,0,0.05,61.900000000000006,0)" xlink:href="#bp"/><use transform="matrix(0.05,0,0,0.05,65.85000000000001,0)" xlink:href="#bs"/><use transform="matrix(0.05,0,0,0.05,75.85000000000001,0)" xlink:href="#bt"/></g><g id="an"><use transform="matrix(0.05,0,0,0.05,0,0)" xlink:href="#bu"/><use transform="matrix(0.05,0,0,0.05,5.95,0)" xlink:href="#bE"/><use transform="matrix(0.05,0,0,0.05,15.949999999999998,0)" xlink:href="#bj"/><use transform="matrix(0.05,0,0,0.05,20.95,0)" xlink:href="#bI"/><use transform="matrix(0.05,0,0,0.05,35.9,0)" xlink:href="#bo"/><use transform="matrix(0.05,0,0,0.05,39.85,0)" xlink:href="#bL"/></g><g id="ao"><use transform="matrix(0.05,0,0,0.05,0,0)" xlink:href="#br"/><use transform="matrix(0.05,0,0,0.05,10,0)" xlink:href="#bn"/><use transform="matrix(0.05,0,0,0.05,20,0)" xlink:href="#bH"/><use transform="matrix(0.05,0,0,0.05,30,0)" xlink:href="#bp"/><use transform="matrix(0.05,0,0,0.05,33.95,0)" xlink:href="#bs"/><use transform="matrix(0.05,0,0,0.05,43.95,0)" xlink:href="#bL"/></g><g id="ap"><use transform="matrix(0.05,0,0,0.05,0,0)" xlink:href="#bx"/><use transform="matrix(0.05,0,0,0.05,5,0)" xlink:href="#bs"/><use transform="matrix(0.05,0,0,0.05,15,0)" xlink:href="#bt"/><use transform="matrix(0.05,0,0,0.05,25,0)" xlink:href="#bj"/><use transform="matrix(0.05,0,0,0.05,30,0)" xlink:href="#by"/><use transform="matrix(0.05,0,0,0.05,39,0)" xlink:href="#bL"/></g><g id="aq"><use transform="matrix(0.05,0,0,0.05,0,0)" xlink:href="#bq"/><use transform="matrix(0.05,0,0,0.05,9,0)" xlink:href="#by"/><use transform="matrix(0.05,0,0,0.05,18,0)" xlink:href="#by"/><use transform="matrix(0.05,0,0,0.05,27,0)" xlink:href="#bL"/></g><g id="ar"><use transform="matrix(0.05,0,0,0.05,0,0)" xlink:href="#bp"/><use transform="matrix(0.05,0,0,0.05,3.95,0)" xlink:href="#bI"/><use transform="matrix(0.05,0,0,0.05,18.900000000000002,0)" xlink:href="#br"/><use transform="matrix(0.05,0,0,0.05,28.900000000000002,0)" xlink:href="#bG"/><use transform="matrix(0.05,0,0,0.05,38.900000000000006,0)" xlink:href="#bh"/><use transform="matrix(0.05,0,0,0.05,48.900000000000006,0)" xlink:href="#by"/><use transform="matrix(0.05,0,0,0.05,57.900000000000006,0)" xlink:href="#bL"/></g><g id="as"><use transform="matrix(0.05,0,0,0.05,0,0)" xlink:href="#bh"/><use transform="matrix(0.05,0,0,0.05,10,0)" xlink:href="#bj"/><use transform="matrix(0.05,0,0,0.05,15,0)" xlink:href="#bq"/><use transform="matrix(0.05,0,0,0.05,24,0)" xlink:href="#bM"/><use transform="matrix(0.05,0,0,0.05,29,0)" xlink:href="#bv"/></g><g id="at"><use transform="matrix(0.05,0,0,0.05,0,0)" xlink:href="#bO"/><use transform="matrix(0.05,0,0,0.05,12.950000000000001,0)" xlink:href="#by"/><use transform="matrix(0.05,0,0,0.05,21.950000000000003,0)" xlink:href="#bh"/><use transform="matrix(0.05,0,0,0.05,31.950000000000003,0)" xlink:href="#bF"/></g><g id="au"><use transform="matrix(0.05,0,0,0.05,0,0)" xlink:href="#bz"/><use transform="matrix(0.05,0,0,0.05,9,0)" xlink:href="#bs"/><use transform="matrix(0.05,0,0,0.05,19,0)" xlink:href="#bn"/><use transform="matrix(0.05,0,0,0.05,29,0)" xlink:href="#bF"/><use transform="matrix(0.05,0,0,0.05,34.95,0)" xlink:href="#bt"/><use transform="matrix(0.05,0,0,0.05,44.95,0)" xlink:href="#bh"/><use transform="matrix(0.05,0,0,0.05,54.95,0)" xlink:href="#bT"/></g><g id="av"><use transform="matrix(0.04320987654320988,0,0,0.04320987654320988,0,0)" xlink:href="#bs"/><use transform="matrix(0.04320987654320988,0,0,0.04320987654320988,8.641975308641976,0)" xlink:href="#bt"/><use transform="matrix(0.04320987654320988,0,0,0.04320987654320988,17.283950617283953,0)" xlink:href="#bo"/><use transform="matrix(0.04320987654320988,0,0,0.04320987654320988,20.69753086419753,0)" xlink:href="#bT"/></g><g id="aw"><use transform="matrix(0.04320987654320988,0,0,0.04320987654320988,0,0)" xlink:href="#bj"/><use transform="matrix(0.04320987654320988,0,0,0.04320987654320988,4.320987654320988,0)" xlink:href="#bE"/><use transform="matrix(0.04320987654320988,0,0,0.04320987654320988,12.962962962962964,0)" xlink:href="#bh"/></g><g id="ax"><use transform="matrix(0.04320987654320988,0,0,0.04320987654320988,0,0)" xlink:href="#bh"/><use transform="matrix(0.04320987654320988,0,0,0.04320987654320988,8.641975308641976,0)" xlink:href="#bt"/><use transform="matrix(0.04320987654320988,0,0,0.04320987654320988,17.283950617283953,0)" xlink:href="#bj"/><use transform="matrix(0.04320987654320988,0,0,0.04320987654320988,21.60493827160494,0)" xlink:href="#bF"/><use transform="matrix(0.04320987654320988,0,0,0.04320987654320988,26.746913580246915,0)" xlink:href="#bT"/></g><g id="ay"><use transform="matrix(0.04320987654320988,0,0,0.04320987654320988,0,0)" xlink:href="#bU"/><use transform="matrix(0.04320987654320988,0,0,0.04320987654320988,8.641975308641976,0)" xlink:href="#bs"/><use transform="matrix(0.04320987654320988,0,0,0.04320987654320988,17.283950617283953,0)" xlink:href="#bp"/><use transform="matrix(0.04320987654320988,0,0,0.04320987654320988,20.69753086419753,0)" xlink:href="#bt"/><use transform="matrix(0.04320987654320988,0,0,0.04320987654320988,29.339506172839503,0)" xlink:href="#bj"/></g><g id="az"><use transform="matrix(0.04320987654320988,0,0,0.04320987654320988,0,0)" xlink:href="#bp"/><use transform="matrix(0.04320987654320988,0,0,0.04320987654320988,3.4135802469135808,0)" xlink:href="#by"/></g><g id="aA"><use transform="matrix(0.04320987654320988,0,0,0.04320987654320988,0,0)" xlink:href="#bI"/><use transform="matrix(0.04320987654320988,0,0,0.04320987654320988,12.919753086419755,0)" xlink:href="#br"/><use transform="matrix(0.04320987654320988,0,0,0.04320987654320988,21.56172839506173,0)" xlink:href="#bU"/><use transform="matrix(0.04320987654320988,0,0,0.04320987654320988,30.203703703703713,0)" xlink:href="#bU"/><use transform="matrix(0.04320987654320988,0,0,0.04320987654320988,38.845679012345684,0)" xlink:href="#bh"/><use transform="matrix(0.04320987654320988,0,0,0.04320987654320988,47.48765432098766,0)" xlink:href="#bH"/></g><g id="aB"><use transform="matrix(0.05,0,0,0.05,0,0)" xlink:href="#bk"/><use transform="matrix(0.05,0,0,0.05,16.95,0)" xlink:href="#bm"/></g><g id="aC"><use transform="matrix(0.05,0,0,0.05,0,0)" xlink:href="#bJ"/><use transform="matrix(0.05,0,0,0.05,12.950000000000001,0)" xlink:href="#bs"/><use transform="matrix(0.05,0,0,0.05,22.950000000000003,0)" xlink:href="#bt"/><use transform="matrix(0.05,0,0,0.05,32.95,0)" xlink:href="#bj"/><use transform="matrix(0.05,0,0,0.05,37.95,0)" xlink:href="#bh"/><use transform="matrix(0.05,0,0,0.05,47.95,0)" xlink:href="#bt"/><use transform="matrix(0.05,0,0,0.05,57.95,0)" xlink:href="#bj"/><use transform="matrix(0.05,0,0,0.05,62.95,0)" xlink:href="#by"/></g><g id="aD"><use transform="matrix(0.05,0,0,0.05,0,0)" xlink:href="#bJ"/><use transform="matrix(0.05,0,0,0.05,12.950000000000001,0)" xlink:href="#bs"/><use transform="matrix(0.05,0,0,0.05,22.950000000000003,0)" xlink:href="#bt"/><use transform="matrix(0.05,0,0,0.05,32.95,0)" xlink:href="#bj"/><use transform="matrix(0.05,0,0,0.05,37.95,0)" xlink:href="#br"/><use transform="matrix(0.05,0,0,0.05,47.95,0)" xlink:href="#bp"/><use transform="matrix(0.05,0,0,0.05,51.900000000000006,0)" xlink:href="#bt"/><use transform="matrix(0.05,0,0,0.05,61.900000000000006,0)" xlink:href="#by"/></g><g id="aE"><use transform="matrix(0.05,0,0,0.05,0,0)" xlink:href="#bs"/><use transform="matrix(0.05,0,0,0.05,10,0)" xlink:href="#bF"/></g><g id="aF"><use transform="matrix(0.05,0,0,0.05,0,0)" xlink:href="#bp"/><use transform="matrix(0.05,0,0,0.05,3.95,0)" xlink:href="#by"/></g><g id="aG"><use transform="matrix(0.05,0,0,0.05,0,0)" xlink:href="#bq"/><use transform="matrix(0.05,0,0,0.05,9,0)" xlink:href="#bs"/><use transform="matrix(0.05,0,0,0.05,19,0)" xlink:href="#bt"/><use transform="matrix(0.05,0,0,0.05,29,0)" xlink:href="#by"/><use transform="matrix(0.05,0,0,0.05,38,0)" xlink:href="#bj"/><use transform="matrix(0.05,0,0,0.05,43,0)" xlink:href="#bF"/><use transform="matrix(0.05,0,0,0.05,48.95,0)" xlink:href="#bn"/><use transform="matrix(0.05,0,0,0.05,58.95,0)" xlink:href="#bq"/><use transform="matrix(0.05,0,0,0.05,67.95,0)" xlink:href="#bj"/><use transform="matrix(0.05,0,0,0.05,72.95,0)" xlink:href="#bh"/><use transform="matrix(0.05,0,0,0.05,82.95,0)" xlink:href="#bH"/></g><g id="aH"><use transform="matrix(0.05,0,0,0.05,0,0)" xlink:href="#bl"/><use transform="matrix(0.05,0,0,0.05,10,0)" xlink:href="#bT"/><use transform="matrix(0.05,0,0,0.05,17.65,0)" xlink:href="#bM"/></g><g id="aI"><use transform="matrix(0.05,0,0,0.05,0,0)" xlink:href="#bW"/><use transform="matrix(0.05,0,0,0.05,12.950000000000001,0)" xlink:href="#bs"/><use transform="matrix(0.05,0,0,0.05,22.950000000000003,0)" xlink:href="#bh"/><use transform="matrix(0.05,0,0,0.05,32.95,0)" xlink:href="#by"/></g><g id="aJ"><use transform="matrix(0.05,0,0,0.05,0,0)" xlink:href="#bt"/><use transform="matrix(0.05,0,0,0.05,10,0)" xlink:href="#bs"/><use transform="matrix(0.05,0,0,0.05,20,0)" xlink:href="#bj"/></g><g id="aK"><use transform="matrix(0.05,0,0,0.05,0,0)" xlink:href="#bH"/><use transform="matrix(0.05,0,0,0.05,10,0)" xlink:href="#bh"/><use transform="matrix(0.05,0,0,0.05,20,0)" xlink:href="#bt"/><use transform="matrix(0.05,0,0,0.05,30,0)" xlink:href="#bs"/><use transform="matrix(0.05,0,0,0.05,40,0)" xlink:href="#bj"/><use transform="matrix(0.05,0,0,0.05,45,0)" xlink:href="#bh"/></g><path d="M143 0L79-87 56-68V0H24v-261h32v163l83-92h37l-77 82L181 0h-38" id="bX"/><g id="aL"><use transform="matrix(0.05,0,0,0.05,0,0)" xlink:href="#bU"/><use transform="matrix(0.05,0,0,0.05,10,0)" xlink:href="#br"/><use transform="matrix(0.05,0,0,0.05,20,0)" xlink:href="#bq"/><use transform="matrix(0.05,0,0,0.05,29,0)" xlink:href="#bX"/><use transform="matrix(0.05,0,0,0.05,38,0)" xlink:href="#br"/><use transform="matrix(0.05,0,0,0.05,48,0)" xlink:href="#bG"/><use transform="matrix(0.05,0,0,0.05,58,0)" xlink:href="#bp"/><use transform="matrix(0.05,0,0,0.05,61.95,0)" xlink:href="#bt"/><use transform="matrix(0.05,0,0,0.05,71.95,0)" xlink:href="#bG"/></g><path fill="#c92d39" d="M30 0v-248h187v28H63v79h144v27H63v87h162V0H30" id="bY"/><path fill="#c92d39" d="M117-194c89-4 53 116 60 194h-32v-121c0-31-8-49-39-48C34-167 62-67 57 0H25l-1-190h30c1 10-1 24 2 32 11-22 29-35 61-36" id="bZ"/><path fill="#c92d39" d="M59-47c-2 24 18 29 38 22v24C64 9 27 4 27-40v-127H5v-23h24l9-43h21v43h35v23H59v120" id="ca"/><path fill="#c92d39" d="M114-163C36-179 61-72 57 0H25l-1-190h30c1 12-1 29 2 39 6-27 23-49 58-41v29" id="cb"/><path fill="#c92d39" d="M179-190L93 31C79 59 56 82 12 73V49c39 6 53-20 64-50L1-190h34L92-34l54-156h33" id="cc"/><g id="aM"><use transform="matrix(0.05,0,0,0.05,0,0)" xlink:href="#bY"/><use transform="matrix(0.05,0,0,0.05,12,0)" xlink:href="#bZ"/><use transform="matrix(0.05,0,0,0.05,22,0)" xlink:href="#ca"/><use transform="matrix(0.05,0,0,0.05,27,0)" xlink:href="#cb"/><use transform="matrix(0.05,0,0,0.05,32.95,0)" xlink:href="#cc"/></g><path fill="#c92d39" d="M115-194c55 1 70 41 70 98S169 2 115 4C84 4 66-9 55-30l1 105H24l-1-265h31l2 30c10-21 28-34 59-34zm-8 174c40 0 45-34 45-75s-6-73-45-74c-42 0-51 32-51 76 0 43 10 73 51 73" id="cd"/><path fill="#c92d39" d="M100-194c62-1 85 37 85 99 1 63-27 99-86 99S16-35 15-95c0-66 28-99 85-99zM99-20c44 1 53-31 53-75 0-43-8-75-51-75s-53 32-53 75 10 74 51 75" id="ce"/><path fill="#c92d39" d="M24-231v-30h32v30H24zM24 0v-190h32V0H24" id="cf"/><g id="aN"><use transform="matrix(0.05,0,0,0.05,0,0)" xlink:href="#cd"/><use transform="matrix(0.05,0,0,0.05,10,0)" xlink:href="#ce"/><use transform="matrix(0.05,0,0,0.05,20,0)" xlink:href="#cf"/><use transform="matrix(0.05,0,0,0.05,23.95,0)" xlink:href="#bZ"/><use transform="matrix(0.05,0,0,0.05,33.95,0)" xlink:href="#ca"/></g><path fill="#c92d39" d="M220-157c-53 9-28 100-34 157h-49v-107c1-27-5-49-29-50C55-147 81-57 75 0H25l-1-190h47c2 12-1 28 3 38 10-53 101-56 108 0 13-22 24-43 59-42 82 1 51 116 57 194h-49v-107c-1-25-5-48-29-50" id="cg"/><path fill="#c92d39" d="M85 4C-2 5 27-109 22-190h50c7 57-23 150 33 157 60-5 35-97 40-157h50l1 190h-47c-2-12 1-28-3-38-12 25-28 42-61 42" id="ch"/><path fill="#c92d39" d="M137-138c1-29-70-34-71-4 15 46 118 7 119 86 1 83-164 76-172 9l43-7c4 19 20 25 44 25 33 8 57-30 24-41C81-84 22-81 20-136c-2-80 154-74 161-7" id="ci"/><path fill="#c92d39" d="M115-3C79 11 28 4 28-45v-112H4v-33h27l15-45h31v45h36v33H77v99c-1 23 16 31 38 25v30" id="cj"/><g id="aO"><use transform="matrix(0.05,0,0,0.05,0,0)" xlink:href="#cg"/><use transform="matrix(0.05,0,0,0.05,16,0)" xlink:href="#ch"/><use transform="matrix(0.05,0,0,0.05,26.950000000000003,0)" xlink:href="#ci"/><use transform="matrix(0.05,0,0,0.05,36.95,0)" xlink:href="#cj"/></g><path fill="#c92d39" d="M24 0v-261h32V0H24" id="ck"/><path fill="#c92d39" d="M143 0L79-87 56-68V0H24v-261h32v163l83-92h37l-77 82L181 0h-38" id="cl"/><g id="aP"><use transform="matrix(0.05,0,0,0.05,0,0)" xlink:href="#ck"/><use transform="matrix(0.05,0,0,0.05,3.95,0)" xlink:href="#cf"/><use transform="matrix(0.05,0,0,0.05,7.9,0)" xlink:href="#bZ"/><use transform="matrix(0.05,0,0,0.05,17.9,0)" xlink:href="#cl"/></g><g id="aQ"><use transform="matrix(0.05,0,0,0.05,0,0)" xlink:href="#ca"/><use transform="matrix(0.05,0,0,0.05,5,0)" xlink:href="#ce"/></g><path fill="#c92d39" d="M210-169c-67 3-38 105-44 169h-31v-121c0-29-5-50-35-48C34-165 62-65 56 0H25l-1-190h30c1 10-1 24 2 32 10-44 99-50 107 0 11-21 27-35 58-36 85-2 47 119 55 194h-31v-121c0-29-5-49-35-48" id="cm"/><path fill="#c92d39" d="M141-36C126-15 110 5 73 4 37 3 15-17 15-53c-1-64 63-63 125-63 3-35-9-54-41-54-24 1-41 7-42 31l-33-3c5-37 33-52 76-52 45 0 72 20 72 64v82c-1 20 7 32 28 27v20c-31 9-61-2-59-35zM48-53c0 20 12 33 32 33 41-3 63-29 60-74-43 2-92-5-92 41" id="cn"/><path fill="#c92d39" d="M101-234c-31-9-42 10-38 44h38v23H63V0H32v-167H5v-23h27c-7-52 17-82 69-68v24" id="co"/><path fill="#c92d39" d="M100-194c63 0 86 42 84 106H49c0 40 14 67 53 68 26 1 43-12 49-29l28 8c-11 28-37 45-77 45C44 4 14-33 15-96c1-61 26-98 85-98zm52 81c6-60-76-77-97-28-3 7-6 17-6 28h103" id="cp"/><path fill="#c92d39" d="M135-143c-3-34-86-38-87 0 15 53 115 12 119 90S17 21 10-45l28-5c4 36 97 45 98 0-10-56-113-15-118-90-4-57 82-63 122-42 12 7 21 19 24 35" id="cq"/><g id="aR"><use transform="matrix(0.05,0,0,0.05,0,0)" xlink:href="#cm"/><use transform="matrix(0.05,0,0,0.05,14.950000000000001,0)" xlink:href="#cn"/><use transform="matrix(0.05,0,0,0.05,24.950000000000003,0)" xlink:href="#bZ"/><use transform="matrix(0.05,0,0,0.05,34.95,0)" xlink:href="#cf"/><use transform="matrix(0.05,0,0,0.05,38.900000000000006,0)" xlink:href="#co"/><use transform="matrix(0.05,0,0,0.05,43.900000000000006,0)" xlink:href="#cp"/><use transform="matrix(0.05,0,0,0.05,53.900000000000006,0)" xlink:href="#cq"/><use transform="matrix(0.05,0,0,0.05,62.900000000000006,0)" xlink:href="#ca"/></g><g id="aS"><use transform="matrix(0.05,0,0,0.05,0,0)" xlink:href="#co"/><use transform="matrix(0.05,0,0,0.05,5,0)" xlink:href="#cf"/><use transform="matrix(0.05,0,0,0.05,8.95,0)" xlink:href="#ck"/><use transform="matrix(0.05,0,0,0.05,12.899999999999999,0)" xlink:href="#cp"/></g><path fill="#c92d39" d="M33 0v-248h34V0H33" id="cr"/><g id="aU"><use transform="matrix(0.05,0,0,0.05,0,0)" xlink:href="#cr"/><use transform="matrix(0.05,0,0,0.05,5,0)" xlink:href="#ca"/></g><g id="aV"><use transform="matrix(0.05,0,0,0.05,0,0)" xlink:href="#cf"/><use transform="matrix(0.05,0,0,0.05,3.95,0)" xlink:href="#cq"/></g><path fill="#c92d39" d="M106-169C34-169 62-67 57 0H25v-261h32l-1 103c12-21 28-36 61-36 89 0 53 116 60 194h-32v-121c2-32-8-49-39-48" id="cs"/><g id="aW"><use transform="matrix(0.05,0,0,0.05,0,0)" xlink:href="#ca"/><use transform="matrix(0.05,0,0,0.05,5,0)" xlink:href="#cs"/><use transform="matrix(0.05,0,0,0.05,15,0)" xlink:href="#cp"/></g><g id="aX"><use transform="matrix(0.05,0,0,0.05,0,0)" xlink:href="#ce"/><use transform="matrix(0.05,0,0,0.05,10,0)" xlink:href="#bZ"/><use transform="matrix(0.05,0,0,0.05,20,0)" xlink:href="#ck"/><use transform="matrix(0.05,0,0,0.05,23.95,0)" xlink:href="#cc"/></g><g id="aY"><use transform="matrix(0.05,0,0,0.05,0,0)" xlink:href="#co"/><use transform="matrix(0.05,0,0,0.05,5,0)" xlink:href="#cf"/><use transform="matrix(0.05,0,0,0.05,8.95,0)" xlink:href="#ck"/><use transform="matrix(0.05,0,0,0.05,12.899999999999999,0)" xlink:href="#cp"/></g><g id="aZ"><use transform="matrix(0.05,0,0,0.05,0,0)" xlink:href="#ca"/><use transform="matrix(0.05,0,0,0.05,5,0)" xlink:href="#cs"/><use transform="matrix(0.05,0,0,0.05,15,0)" xlink:href="#cn"/><use transform="matrix(0.05,0,0,0.05,25,0)" xlink:href="#ca"/></g><g id="ba"><use transform="matrix(0.05,0,0,0.05,0,0)" xlink:href="#cg"/><use transform="matrix(0.05,0,0,0.05,16,0)" xlink:href="#ch"/><use transform="matrix(0.05,0,0,0.05,26.950000000000003,0)" xlink:href="#ci"/><use transform="matrix(0.05,0,0,0.05,36.95,0)" xlink:href="#cj"/></g><g id="bb"><use transform="matrix(0.05,0,0,0.05,0,0)" xlink:href="#ck"/><use transform="matrix(0.05,0,0,0.05,3.95,0)" xlink:href="#cf"/><use transform="matrix(0.05,0,0,0.05,7.9,0)" xlink:href="#bZ"/><use transform="matrix(0.05,0,0,0.05,17.9,0)" xlink:href="#cl"/></g><g id="bc"><use transform="matrix(0.05,0,0,0.05,0,0)" xlink:href="#ca"/><use transform="matrix(0.05,0,0,0.05,5,0)" xlink:href="#cs"/><use transform="matrix(0.05,0,0,0.05,15,0)" xlink:href="#cp"/></g><g id="bd"><use transform="matrix(0.05,0,0,0.05,0,0)" xlink:href="#cm"/><use transform="matrix(0.05,0,0,0.05,14.950000000000001,0)" xlink:href="#cn"/><use transform="matrix(0.05,0,0,0.05,24.950000000000003,0)" xlink:href="#bZ"/><use transform="matrix(0.05,0,0,0.05,34.95,0)" xlink:href="#cf"/><use transform="matrix(0.05,0,0,0.05,38.900000000000006,0)" xlink:href="#co"/><use transform="matrix(0.05,0,0,0.05,43.900000000000006,0)" xlink:href="#cp"/><use transform="matrix(0.05,0,0,0.05,53.900000000000006,0)" xlink:href="#cq"/><use transform="matrix(0.05,0,0,0.05,62.900000000000006,0)" xlink:href="#ca"/></g><g id="be"><use transform="matrix(0.05,0,0,0.05,0,0)" xlink:href="#co"/><use transform="matrix(0.05,0,0,0.05,5,0)" xlink:href="#cf"/><use transform="matrix(0.05,0,0,0.05,8.95,0)" xlink:href="#ck"/><use transform="matrix(0.05,0,0,0.05,12.899999999999999,0)" xlink:href="#cp"/></g><path d="M195 0l-88-114-31 24V0H24v-248h52v113l112-113h60L142-143 257 0h-62" id="ct"/><path d="M185-48c-13 30-37 53-82 52C43 2 14-33 14-96s30-98 90-98c62 0 83 45 84 108H66c0 31 8 55 39 56 18 0 30-7 34-22zm-45-69c5-46-57-63-70-21-2 6-4 13-4 21h74" id="cu"/><path d="M123 10C108 53 80 86 19 72V37c35 8 53-11 59-39L3-190h52l48 148c12-52 28-100 44-148h51" id="cv"/><g id="bf"><use transform="matrix(0.06790123456790124,0,0,0.06790123456790124,0,0)" xlink:href="#ct"/><use transform="matrix(0.06790123456790124,0,0,0.06790123456790124,17.58641975308642,0)" xlink:href="#cu"/><use transform="matrix(0.06790123456790124,0,0,0.06790123456790124,31.16666666666667,0)" xlink:href="#cv"/></g></defs></g></svg>